<svg width="43" height="39" viewBox="0 0 43 39" fill="none" xmlns="http://www.w3.org/2000/svg">
<rect x="0.230469" y="0.230469" width="42.4615" height="37.8462" rx="9.23077" fill="#F5F7FE"/>
<path d="M32.7032 20.0141L17.0417 28.6334C16.1831 29.1059 15.104 28.793 14.6315 27.9344L9.85889 19.2624C9.38636 18.4038 9.69933 17.3247 10.5579 16.8522L26.2194 8.23291C27.078 7.76038 28.1571 8.07335 28.6296 8.93195L33.4022 17.6039C33.8747 18.4625 33.5618 19.5416 32.7032 20.0141Z" fill="#FEBC1F"/>
<path d="M32.3633 19.393L16.7019 28.0123C15.8433 28.4848 14.7642 28.1719 14.2917 27.3133L9.51905 18.6413C9.04651 17.7827 9.35948 16.7037 10.2181 16.2311L25.8795 7.61182C26.7381 7.13929 27.8172 7.45226 28.2897 8.31086L33.0624 16.9828C33.5349 17.8414 33.2219 18.9205 32.3633 19.393Z" fill="#FFD475"/>
<path d="M25.8795 7.61274L10.2181 16.2321C9.35948 16.7046 9.04652 17.7837 9.51904 18.6423L14.2917 27.3142C14.2917 27.3142 9.84454 18.8093 27.4629 7.55108C26.9718 7.33044 26.3875 7.33318 25.8795 7.61274Z" fill="#FEBC1F"/>
<path d="M10.9181 19.7052L11.5174 20.7941C11.6684 21.0686 12.0134 21.1687 12.2879 21.0176L28.8096 11.9249C29.0841 11.7738 29.1842 11.4288 29.0331 11.1543L28.4338 10.0654C28.2827 9.79088 27.9377 9.69082 27.6632 9.84189L11.1415 18.9346C10.867 19.0857 10.767 19.4307 10.9181 19.7052Z" fill="#1D2943"/>
<path d="M10.754 19.4025L11.3533 20.4914C11.5044 20.7659 11.8494 20.866 12.1239 20.7149L28.6456 11.6222C28.9201 11.4711 29.0201 11.1261 28.869 10.8516L28.2697 9.76264C28.1187 9.48814 27.7737 9.38808 27.4992 9.53915L10.9775 18.6319C10.703 18.783 10.6029 19.128 10.754 19.4025Z" fill="#4C5C75"/>
<path d="M29.8699 30.9153L11.9933 30.9153C11.0132 30.9153 10.2188 30.1208 10.2188 29.1408L10.2188 19.2423C10.2187 18.2623 11.0132 17.4678 11.9933 17.4678L29.8699 17.4678C30.8499 17.4678 31.6444 18.2623 31.6444 19.2423L31.6444 29.1408C31.6444 30.1208 30.8499 30.9153 29.8699 30.9153Z" fill="#5094FF"/>
<path d="M11.9933 30.2053L29.8699 30.2053C30.8499 30.2053 31.6444 29.4109 31.6444 28.4308L31.6444 18.5323C31.6444 17.5523 30.8499 16.7578 29.8699 16.7578L11.9933 16.7578C11.0132 16.7578 10.2188 17.5523 10.2188 18.5323L10.2188 28.4308C10.2187 29.4108 11.0132 30.2053 11.9933 30.2053Z" fill="#57B3FE"/>
<path d="M11.9931 16.7568L29.8697 16.7569C30.8497 16.7569 31.6442 17.5514 31.6442 18.5314V28.4299C31.6442 28.4299 31.4396 18.8347 10.5762 17.4663C10.9 17.0362 11.4133 16.7568 11.9931 16.7568Z" fill="#5094FF"/>
<path d="M30.2537 27.0201V27.2955H30.25C30.2572 27.668 29.9465 27.9808 29.572 27.9808L27.7715 27.9808C27.4037 27.9808 27.0862 27.6737 27.0935 27.2955H27.0898V27.0201H27.1338C27.2401 26.7526 27.5297 26.5693 27.8338 26.5693L29.5097 26.5693C29.8138 26.5693 30.1034 26.7526 30.2097 27.0201H30.2537Z" fill="#E3E7F0"/>
<path d="M29.5706 27.7077L27.8302 27.7078C27.4795 27.7078 27.1481 27.4697 27.0989 27.1225C27.039 26.6997 27.366 26.3369 27.7772 26.3369L29.5108 26.3369C29.8827 26.3369 30.229 26.6068 30.2516 26.9779C30.2767 27.3899 29.951 27.7077 29.5706 27.7077Z" fill="white"/>
<path d="M25.0935 27.0211V27.2965H25.0898C25.097 27.6689 24.7863 27.9818 24.4118 27.9818L22.6114 27.9818C22.2435 27.9818 21.9261 27.6747 21.9334 27.2965H21.9297V27.0211H21.9737C22.08 26.7536 22.3695 26.5703 22.6736 26.5703L24.3495 26.5703C24.6537 26.5703 24.9432 26.7536 25.0495 27.0211H25.0935Z" fill="#E3E7F0"/>
<path d="M24.4105 27.7077L22.67 27.7078C22.3194 27.7078 21.988 27.4697 21.9388 27.1225C21.8788 26.6997 22.2058 26.3369 22.617 26.3369L24.3506 26.3369C24.7225 26.3369 25.0688 26.6068 25.0914 26.9779C25.1166 27.3899 24.7908 27.7077 24.4105 27.7077Z" fill="white"/>
<path d="M19.9353 27.0211V27.2965H19.9316C19.9388 27.6689 19.6281 27.9818 19.2536 27.9818H17.4532C17.0853 27.9818 16.7679 27.6747 16.7752 27.2965H16.7715V27.0211H16.8155C16.9218 26.7536 17.2113 26.5703 17.5154 26.5703H19.1913C19.4955 26.5703 19.785 26.7536 19.8913 27.0211H19.9353Z" fill="#E3E7F0"/>
<path d="M19.2542 27.7077L17.5138 27.7078C17.1631 27.7078 16.8317 27.4697 16.7825 27.1225C16.7226 26.6997 17.0495 26.3369 17.4608 26.3369L19.1944 26.3369C19.5662 26.3369 19.9125 26.6068 19.9352 26.9779C19.9603 27.3899 19.6345 27.7077 19.2542 27.7077Z" fill="white"/>
<path d="M14.7712 27.0211V27.2965H14.7676C14.7747 27.6689 14.4641 27.9818 14.0896 27.9818L12.2891 27.9818C11.9212 27.9818 11.6038 27.6747 11.6111 27.2965H11.6074V27.0211H11.6514C11.7577 26.7536 12.0472 26.5703 12.3514 26.5703L14.0272 26.5703C14.3314 26.5703 14.621 26.7536 14.7273 27.0211H14.7712Z" fill="#E3E7F0"/>
<path d="M14.0862 27.7077L12.3458 27.7078C11.9951 27.7078 11.6638 27.4697 11.6145 27.1225C11.5546 26.6997 11.8816 26.3369 12.2928 26.3369L14.0264 26.3369C14.3983 26.3369 14.7446 26.6068 14.7672 26.9779C14.7924 27.3899 14.4666 27.7077 14.0862 27.7077Z" fill="white"/>
<path d="M11.6152 19.8847L11.6152 21.5405C11.6152 21.9579 11.9536 22.2963 12.371 22.2963L15.4715 22.2962C15.8889 22.2962 16.2273 21.9579 16.2273 21.5405L16.2273 19.8847C16.2273 19.4673 15.8889 19.1289 15.4715 19.1289L12.371 19.1289C11.9536 19.1289 11.6152 19.4673 11.6152 19.8847Z" fill="#FEBC1F"/>
<path d="M11.6152 19.6269L11.6152 21.2827C11.6152 21.7001 11.9536 22.0384 12.371 22.0384L15.4715 22.0384C15.8889 22.0384 16.2273 21.7001 16.2273 21.2827V19.6268C16.2273 19.2095 15.8889 18.8711 15.4715 18.8711L12.371 18.8711C11.9536 18.8711 11.6152 19.2095 11.6152 19.6269Z" fill="#FFD475"/>
<path d="M13.8409 20.2761V18.8711H13.482V20.2761H11.6152V20.6351H12.6365V22.0384H12.9955V20.6351H14.6118V22.0384H14.9708V20.6351H16.2273V20.2761H13.8409Z" fill="#FEBC1F"/>
<path d="M29.9303 21.5148L27.9093 21.5148C27.7409 21.5148 27.5817 21.4004 27.5581 21.2337C27.5293 21.0307 27.6863 20.8565 27.8838 20.8565L29.9016 20.8564C30.0802 20.8564 30.2465 20.986 30.2574 21.1643C30.2694 21.3621 30.113 21.5148 29.9303 21.5148Z" fill="white"/>
<path d="M29.9322 20.1056L26.3839 20.1056C26.2155 20.1056 26.0564 19.9913 26.0327 19.8245C26.0039 19.6215 26.161 19.4473 26.3585 19.4473L29.9035 19.4473C30.082 19.4473 30.2483 19.5769 30.2592 19.7551C30.2713 19.953 30.1148 20.1056 29.9322 20.1056Z" fill="white"/>
<path d="M29.3867 12.4326C30.2315 13.5167 30.9219 14.6947 31.451 15.9633C30.6049 14.8802 29.917 13.7005 29.3867 12.4326Z" fill="white"/>
<path d="M13.6465 15.963C14.8776 15.021 16.2033 14.2328 17.621 13.6055C16.3907 14.5487 15.0634 15.3343 13.6465 15.963Z" fill="white"/>
<path d="M23.8125 29.3149C25.3518 29.1328 26.8941 29.1312 28.4334 29.3149C26.8941 29.4985 25.3518 29.497 23.8125 29.3149Z" fill="white"/>
</svg>
